<svg xmlns="http://www.w3.org/2000/svg" viewBox="0 0 108 108" role="img" aria-label="Bus et horloge">
  <!-- Couleurs -->
  <defs>
    <style>
      .blue{fill:#0A66FF;stroke:#0A66FF}
      .white{fill:#fff}
    </style>
  </defs>

  <!-- Fond arrondi -->
  <rect x="6" y="6" width="96" height="96" rx="20" class="blue"/>

  <!-- Bus de face -->
  <g>
    <!-- corps -->
    <rect x="28" y="28" width="44" height="46" rx="10" class="white"/>
    <!-- fenêtres -->
    <rect x="33" y="38" width="16" height="16" rx="3" class="blue"/>
    <rect x="51" y="38" width="16" height="16" rx="3" class="blue"/>
    <!-- séparation centrale -->
    <rect x="48" y="38" width="4" height="16" class="white"/>
    <!-- girouette -->
    <rect x="40" y="32" width="20" height="5" rx="2.5" class="blue"/>
    <!-- phares (trous) -->
    <circle cx="40" cy="63" r="4" class="blue"/>
    <circle cx="60" cy="63" r="4" class="blue"/>
    <!-- pieds/roues stylisés -->
    <rect x="34" y="70" width="10" height="8" rx="3" class="white"/>
    <rect x="56" y="70" width="10" height="8" rx="3" class="white"/>
  </g>

  <!-- Horloge en surimpression -->
  <g>
    <circle cx="78" cy="34" r="14" class="white"/>
    <circle cx="78" cy="34" r="12" fill="none" stroke="#0A66FF" stroke-width="4"/>
    <line x1="78" y1="34" x2="78" y2="24" stroke="#0A66FF" stroke-width="4" stroke-linecap="round"/>
    <line x1="78" y1="34" x2="88" y2="34" stroke="#0A66FF" stroke-width="4" stroke-linecap="round"/>
    <rect x="75.5" y="18" width="5" height="4" rx="1.6" class="white" stroke="#0A66FF" stroke-width="2"/>
  </g>
</svg>
